<?xml version="1.0" encoding="UTF-8"?>
<svg width="568px" height="99px" viewBox="0 0 568 99" version="1.1" xmlns="http://www.w3.org/2000/svg" xmlns:xlink="http://www.w3.org/1999/xlink">
    <g id="Logo" stroke="none" stroke-width="1" fill="none" fill-rule="evenodd">
        <path d="M47.5838723,97.2444212 L47.5838723,89.5108335 C42.2948161,95.6419827 33.9255042,99 24.5251094,99 C13.0690453,98.9944648 0,91.1123495 0,75.6442516 C0,59.2969806 12.927051,52.582791 24.5251094,52.582791 C34.2178454,52.582791 42.293888,55.6502107 47.5838723,61.6337547 L47.5838723,51.1215 C47.5838723,42.9515546 40.6836911,37.9864861 30.9872428,37.9864861 C23.060619,37.9864861 16.0100909,40.9072232 9.9897176,47.0383724 L3.52572809,36.3831251 C11.7502615,28.5019323 22.0295361,25 33.3380375,25 C49.1968534,25 63,31.5675069 63,50.3963897 L63,97.2444212 L47.5838723,97.2444212 Z M47.5838723,81.1877478 L47.5838723,70.3959658 C43.9087253,65.5748124 37.2999573,63.0959683 30.6921173,63.0959683 C22.0295361,63.0959683 15.4216962,68.2012616 15.4216962,75.7909343 C15.4216962,83.526367 22.028608,88.494203 30.6921173,88.494203 C37.2999573,88.4886678 43.9077972,86.0015209 47.5838723,81.1877478 Z M75,97.2490272 L75,0 L90.4726646,0 L90.4726646,36.5980954 C96.2191487,29.0145402 104.472851,25.0794593 113.315172,25.0794593 C131.735587,25.0794593 145,39.2217899 145,61.9678476 C145,85.2954127 131.590295,99 113.315172,99 C104.176679,99 95.923908,94.6262544 90.4726646,87.6325005 L90.4726646,97.2517919 L75,97.2490272 Z M108.894011,85.436412 C121.124616,85.436412 128.937785,75.6641409 128.937785,61.9660045 C128.937785,48.4061028 121.126479,38.6375179 108.894011,38.6375179 C101.524169,38.6375179 94.0108969,42.8674995 90.4717333,48.11581 L90.4717333,76.1110997 C94.0108969,81.3557239 101.524169,85.436412 108.894011,85.436412 Z M152,61.9266578 C152,41.6380761 165.84045,25 188.501395,25 C211.166061,25 225,41.6380761 225,61.9266578 C225,82.068555 211.164201,99 188.501395,99 C165.84138,98.9981549 152,82.068555 152,61.9266578 Z M208.960705,61.9266578 C208.960705,49.5193672 201.751207,38.5752309 188.501395,38.5752309 C175.404126,38.5752309 168.043946,49.5212123 168.043946,61.9266578 C168.043946,74.4750976 175.403196,85.4238465 188.501395,85.4238465 C201.752137,85.422924 208.960705,74.4732525 208.960705,61.9266578 Z M280.654403,96.2559217 L280.654403,86.9452837 C275.682396,92.4827551 266.91256,98 255.804531,98 C240.603974,98 233,89.9985698 233,75.7462235 L233,26 L248.348369,26 L248.348369,70.0745215 C248.348369,80.9812164 253.900535,84.4758086 262.674991,84.4758086 C270.420309,84.4758086 277.147577,79.962535 280.653479,75.3012399 L280.653479,26 L296,26 L296,96.2586799 L280.653479,96.2586799 L280.654403,96.2559217 Z M317.650227,79.8620158 L317.650227,39.3678281 L306,39.3678281 L306,26.1553838 L317.650227,26.1553838 L317.650227,7 L332.94817,7 L332.94817,26.158136 L347.226005,26.158136 L347.226005,39.3687455 L332.94817,39.3687455 L332.94817,76.087818 C332.94817,80.876664 335.2784,84.5095816 339.649767,84.5095816 C342.560942,84.5095816 345.184867,83.2013643 346.348601,81.8922296 L350,93.5038049 C347.223243,95.9697853 342.711933,97.9999991 335.7148,97.9999991 C323.768115,98.0027513 317.650227,91.6139538 317.650227,79.8620158 Z M358,87.8582518 C358,82.5702418 362.572331,78 367.999549,78 C373.427669,78 378,82.5702418 378,87.8582518 C378,93.2834955 373.425863,97.9999995 367.999549,97.9999995 C362.571429,98.0018052 358,93.2825926 358,87.8582518 Z M472.656502,97 L472.656502,51.1804809 C472.656502,43.6157598 469.286547,38.523272 460.966481,38.523272 C454.100049,38.523272 447.671369,43.177212 444.599714,47.8339101 L444.599714,96.9981612 L429.258986,96.9981612 L429.258986,51.1804809 C429.258986,43.6157598 426.049726,38.523272 417.709342,38.523272 C410.84291,38.523272 404.559224,43.3233946 401.338881,47.8339101 L401.338881,96.9981612 L386,96.9981612 L386,26.7440783 L401.338881,26.7440783 L401.338881,36.200899 C404.412383,31.9809099 413.615341,25 424.431704,25 C434.946073,25 441.379371,30.2340735 443.717744,37.8006334 C447.663981,31.5451202 457.019322,25 467.680532,25 C480.546204,25 488,31.9799906 488,46.2360145 L488,97 L472.656502,97 Z M497,61.9238958 C497,41.4892357 512.026445,25 533.088789,25 C554.444363,25.0009225 568,41.0529052 568,63.2365774 L568,67.0297934 L513.20123,67.0297934 C514.384392,77.5423154 522.323032,86.4441965 535.728796,86.4441965 C542.810085,86.4441965 550.898598,83.6657026 556.054805,78.5607275 L563.123992,88.635074 C555.906793,95.3497675 545.449162,99 534.252403,99 C512.759987,98.9926202 497,84.253319 497,61.9238958 Z M532.941708,37.5539585 C519.832898,37.5539585 513.645265,47.6255376 513.056942,56.0846308 L553.119705,56.0846308 C552.676601,47.7675987 546.932071,37.5539585 532.941708,37.5539585 Z" id="aboutme_logo" fill="#333333" fill-rule="nonzero"></path>
    </g>
</svg>
