<?xml version="1.0" encoding="UTF-8"?>
<svg width="256px" height="256px" viewBox="0 0 256 256" version="1.1" xmlns="http://www.w3.org/2000/svg" xmlns:xlink="http://www.w3.org/1999/xlink">
    <!-- Generator: Sketch 48.2 (47327) - http://www.bohemiancoding.com/sketch -->
    <title>aboutme_icon</title>
    <desc>Created with Sketch.</desc>
    <defs></defs>
    <g id="Logos" stroke="none" stroke-width="1" fill="none" fill-rule="evenodd">
        <g id="aboutme_icon">
            <rect id="background-gray" fill="#333333" x="0" y="0" width="256" height="256"></rect>
            <path d="M36.4368941,137.604186 L36.4368941,134.599819 C34.3944401,136.981666 31.162496,138.286199 27.5323826,138.286199 C23.1084396,138.284048 18.061618,135.22198 18.061618,129.212887 C18.061618,122.862249 23.0536062,120.2539 27.5323826,120.2539 C31.2753882,120.2539 34.3940817,121.445541 36.4368941,123.770046 L36.4368941,119.686213 C36.4368941,116.512328 33.7722783,114.583483 30.0278392,114.583483 C26.9668462,114.583483 24.2441716,115.71814 21.9193078,118.099988 L19.4231345,113.960605 C22.5991701,110.898895 26.568677,109.538454 30.9356363,109.538454 C37.0597726,109.538454 42.3900792,112.089819 42.3900792,119.40452 L42.3900792,137.604186 L36.4368941,137.604186 Z M36.4368941,131.366441 L36.4368941,127.174017 C35.0176771,125.30108 32.4655952,124.338091 29.9138717,124.338091 C26.568677,124.338091 24.0169535,126.321411 24.0169535,129.26987 C24.0169535,132.274955 26.5683186,134.204875 29.9138717,134.204875 C32.4655952,134.202724 35.0173187,133.23651 36.4368941,131.366441 Z M46.9731466,137.604186 L46.9731466,99.7849207 L52.9270486,99.7849207 L52.9270486,114.017588 C55.1383033,111.068412 58.3143389,109.538095 61.7168758,109.538095 C68.8050762,109.538095 73.9092399,115.037919 73.9092399,123.883655 C73.9092399,132.955534 68.7491676,138.285124 61.7168758,138.285124 C58.2003715,138.285124 55.0246943,136.584214 52.9270486,133.864406 L52.9270486,137.605261 L46.9731466,137.604186 Z M60.0156073,133.010367 C64.7219602,133.010367 67.7284782,129.210019 67.7284782,123.882938 C67.7284782,118.609615 64.722677,114.810701 60.0156073,114.810701 C57.1796821,114.810701 54.2885651,116.455703 52.9266902,118.496723 L52.9266902,129.383838 C54.2885651,131.423425 57.1796821,133.010367 60.0156073,133.010367 Z M76.8186347,123.88258 C76.8186347,116.000908 82.15145,109.537378 90.88286,109.537378 C99.6157035,109.537378 104.94601,116.000908 104.94601,123.88258 C104.94601,131.707268 99.6149867,138.284765 90.88286,138.284765 C82.1518084,138.284048 76.8186347,131.707268 76.8186347,123.88258 Z M98.7659652,123.88258 C98.7659652,119.062618 95.9880988,114.81106 90.88286,114.81106 C85.8363967,114.81106 83.0004715,119.063335 83.0004715,123.88258 C83.0004715,128.757375 85.8360384,133.010726 90.88286,133.010726 C95.9884572,133.010367 98.7659652,128.756658 98.7659652,123.88258 Z M126.755361,137.604186 L126.755361,133.97479 C124.826516,136.133361 121.424338,138.284048 117.115079,138.284048 C111.218161,138.284048 108.268268,135.164997 108.268268,129.609264 L108.268268,110.217599 L114.222528,110.217599 L114.222528,127.398367 C114.222528,131.649926 116.376441,133.012159 119.780411,133.012159 C122.785138,133.012159 125.39492,131.252832 126.755003,129.435804 L126.755003,110.217599 L132.708546,110.217599 L132.708546,137.605261 L126.755003,137.605261 L126.755361,137.604186 Z M141.120632,131.197282 L141.120632,115.37803 L136.585589,115.37803 L136.585589,110.216524 L141.120632,110.216524 L141.120632,102.73338 L147.07561,102.73338 L147.07561,110.217599 L152.633493,110.217599 L152.633493,115.378388 L147.07561,115.378388 L147.07561,129.722873 C147.07561,131.593659 147.98269,133.012876 149.684317,133.012876 C150.81754,133.012876 151.838946,132.501814 152.291949,131.990395 L153.713316,136.526513 C152.632418,137.48986 150.876316,138.282973 148.152566,138.282973 C143.502122,138.284048 141.120632,135.788234 141.120632,131.197282 Z M156.56071,134.202724 C156.56071,132.103645 158.375946,130.289485 160.530575,130.289485 C162.685563,130.289485 164.500799,132.103645 164.500799,134.202724 C164.500799,136.356279 162.684846,138.228498 160.530575,138.228498 C158.375587,138.229215 156.56071,136.35592 156.56071,134.202724 Z M201.142042,137.604186 L201.142042,119.743197 C201.142042,116.79438 199.834284,114.809268 196.605566,114.809268 C193.94095,114.809268 191.44621,116.623428 190.254211,118.438664 L190.254211,137.603469 L184.301026,137.603469 L184.301026,119.743197 C184.301026,116.79438 183.055627,114.809268 179.819024,114.809268 C177.154408,114.809268 174.715936,116.680412 173.466236,118.438664 L173.466236,137.603469 L167.513768,137.603469 L167.513768,110.217599 L173.466236,110.217599 L173.466236,113.903979 C174.658952,112.258978 178.23029,109.537737 182.427731,109.537737 C186.50798,109.537737 189.004512,111.57804 189.911951,114.527575 C191.443343,112.089102 195.073815,109.537737 199.211047,109.537737 C204.203752,109.537737 207.096303,112.258619 207.096303,117.815786 L207.096303,137.604186 L201.142042,137.604186 Z M210.418919,123.88258 C210.418919,115.943566 216.20402,109.537378 224.31291,109.537378 C232.534692,109.537737 237.75354,115.774049 237.75354,124.392566 L237.75354,125.866258 L216.656306,125.866258 C217.111817,129.950449 220.168151,133.408895 225.329299,133.408895 C228.055557,133.408895 231.169592,132.32943 233.154704,130.34611 L235.876303,134.260067 C233.09772,136.868774 229.071588,138.286916 224.760895,138.286916 C216.48643,138.284048 210.418919,132.557723 210.418919,123.88258 Z M224.256285,114.414682 C219.209463,114.414682 216.827257,118.327564 216.600756,121.613983 L232.024706,121.613983 C231.854113,118.382756 229.6425,114.414682 224.256285,114.414682 Z" id="about.me" fill="#FFFFFF"></path>
        </g>
    </g>
</svg>