<svg viewBox="0 0 81.12031428571427 80.2" version="1.1" xmlns="http://www.w3.org/2000/svg" id="a" style="max-height: 500px" width="81.12031428571427" height="80.2">
  
  <defs>
    <style>
      .st0 {
        fill: #ff90e8;
        stroke: #000;
        stroke-width: 1.6px;
      }
    </style>
  </defs>
  <path d="M43.7,80.2c20.5,0,37-16.6,37-37S64.2,6.1,43.7,6.1,6.7,22.7,6.7,43.2s16.6,37,37,37"/>
  <path d="M38.6,76.4c20.9,0,37.8-16.9,37.8-37.8S59.5.8,38.6.8.8,17.7.8,38.6s16.9,37.8,37.8,37.8h0Z" class="st0"/>
  <path d="M35.4,57.3c-10.9,0-17.2-8.7-17.2-19.5s7-20.4,20.4-20.4,18.5,9.3,18.7,14.6h-10c-.2-3-2.8-7.4-8.9-7.4s-10.9,5.7-10.9,12.7,4.3,12.7,10.9,12.7,8.5-4.7,9.6-9.3h-9.6v-3.8h20.1v19.5h-8.8v-12.3c-.6,4.5-3.4,13.2-14.2,13.2h0Z"/>
</svg>