<svg id="svg528" version="1.1" viewBox="0 0 19.89544703452 28.15008207118362" xmlns="http://www.w3.org/2000/svg" style="max-height: 500px" width="19.89544703452" height="28.15008207118362">
  <defs id="defs522">
    <linearGradient gradientTransform="matrix(0.26458333,0,0,0.26458333,265.95943,331.011)" id="a" x1="79.581123" y1="193.98643" x2="23.409241" y2="64.421066" gradientUnits="userSpaceOnUse">
      <stop offset="0" stop-color="#000083" id="stop334"/>
      <stop offset="1" stop-color="#22b5f0" id="stop336"/>
    </linearGradient>
    <linearGradient gradientTransform="matrix(0.26458333,0,0,0.26458333,265.95943,331.011)" id="b" x1="112.05266" y1="205.1917" x2="51.652302" y2="61.901459" gradientUnits="userSpaceOnUse">
      <stop offset="0" stop-color="#000083" id="stop339"/>
      <stop offset="0.08408" stop-color="#091c95" id="stop341"/>
      <stop offset="0.25492" stop-color="#1850b5" id="stop343"/>
      <stop offset="0.42293" stop-color="#267bcf" id="stop345"/>
      <stop offset="0.58458" stop-color="#309de4" id="stop347"/>
      <stop offset="0.73819" stop-color="#37b5f3" id="stop349"/>
      <stop offset="0.88033" stop-color="#3bc3fc" id="stop351"/>
      <stop offset="1" stop-color="#3dc8ff" id="stop353"/>
    </linearGradient>
    <linearGradient gradientTransform="matrix(0.26458333,0,0,0.26458333,265.95943,331.011)" id="c" x1="168.42209" y1="176.48039" x2="72.778" y2="71.889198" gradientUnits="userSpaceOnUse">
      <stop offset="0" stop-color="#2083e6" id="stop356"/>
      <stop offset="0.03759" stop-color="#2488e8" id="stop358"/>
      <stop offset="0.3881" stop-color="#44b0f4" id="stop360"/>
      <stop offset="0.66581" stop-color="#58c9fc" id="stop362"/>
      <stop offset="0.83453" stop-color="#5fd2ff" id="stop364"/>
    </linearGradient>
    <linearGradient gradientTransform="matrix(0.26458333,0,0,0.26458333,265.95943,331.011)" id="d" x1="146.24446" y1="58.747501" x2="91.989464" y2="58.747501" gradientUnits="userSpaceOnUse">
      <stop offset="0" stop-color="#099cd6" id="stop367"/>
      <stop offset="0.04624" stop-color="#0ea1db" id="stop369"/>
      <stop offset="0.20514" stop-color="#19ace7" id="stop371"/>
      <stop offset="0.42511" stop-color="#20b3ee" id="stop373"/>
      <stop offset="1" stop-color="#22b5f0" id="stop375"/>
    </linearGradient>
    <linearGradient gradientTransform="matrix(0.26458333,0,0,0.26458333,265.95943,331.011)" id="e" x1="88.868736" y1="70.781822" x2="145.7832" y2="70.781822" gradientUnits="userSpaceOnUse">
      <stop offset="0" stop-color="#3dc8ff" id="stop378"/>
      <stop offset="0.3969" stop-color="#36c3fb" id="stop380"/>
      <stop offset="0.96322" stop-color="#23b6f1" id="stop382"/>
      <stop offset="1" stop-color="#22b5f0" id="stop384"/>
    </linearGradient>
  </defs>
  
  <metadata id="metadata525">
    
      
        image/svg+xml
        
        
      
    
  </metadata>
  <g transform="translate(-9.4496747,-183.73952)" id="layer1">
    <g id="g475" transform="matrix(0.59999853,0,0,0.59999853,-153.82971,-18.57083)">
      <path style="fill:#000083;stroke-width:0.26458332" class="a" d="m 309.20869,376.5753 3.99105,-26.53132 a 1.1199468,1.1199468 0 0 1 0.79563,-0.90906 l 7.97629,-2.3125 a 0.74663564,0.74663564 0 0 1 0.94627,0.82787 l -3.99188,26.61133 c -0.15421,1.28553 0.36,1.79947 1.59395,1.79947 a 7.2842781,7.2842781 0 0 0 1.20806,-0.1101 0.80197589,0.80197589 0 0 1 0.93144,0.90607 l -0.82355,5.46427 a 1.3263139,1.3263139 0 0 1 -1.01616,1.09481 17.207603,17.207603 0 0 1 -4.15584,0.51153 c -5.55289,0 -8.17499,-2.57079 -7.45526,-7.35237 z m 48.81539,0 3.99106,-26.53132 a 1.1199442,1.1199442 0 0 1 0.79563,-0.90906 l 7.97628,-2.3125 a 0.74663564,0.74663564 0 0 1 0.94628,0.82787 l -3.99189,26.61133 c -0.1542,1.28553 0.36001,1.79947 1.59395,1.79947 a 7.2842251,7.2842251 0 0 0 1.20806,-0.1101 0.80197324,0.80197324 0 0 1 0.93144,0.90607 l -0.82354,5.46427 a 1.3263139,1.3263139 0 0 1 -1.01616,1.09481 17.207603,17.207603 0 0 1 -4.15584,0.51153 c -5.55289,0 -8.175,-2.57079 -7.45527,-7.35237 z m -2.03365,0.26817 -0.79743,5.54392 a 1.2176125,1.2176125 0 0 1 -0.93709,1.01264 18.279319,18.279319 0 0 1 -4.21962,0.52764 c -3.59893,0 -5.86131,-1.18264 -6.78656,-3.18763 -2.15948,1.90209 -5.39869,3.18763 -8.94631,3.18763 -6.68367,0 -10.38551,-4.47316 -9.40867,-11.05421 l 2.1611,-14.63751 a 0.80105778,0.80105778 0 0 1 0.79247,-0.68406 h 7.7378 a 0.80105778,0.80105778 0 0 1 0.79246,0.91812 l -1.86937,12.65529 c -0.4629,2.9821 0.82263,4.83316 3.59894,4.83316 2.8279,0 4.83288,-1.74816 5.2442,-4.67895 l 1.95435,-13.04525 a 0.80105514,0.80105514 0 0 1 0.79222,-0.68237 h 7.73959 a 0.80105778,0.80105778 0 0 1 0.79246,0.9181 l -2.3323,15.79163 c -0.2058,1.23394 0.30842,1.79947 1.59367,1.79947 a 6.0998919,6.0998919 0 0 0 1.15405,-0.11772 0.80267439,0.80267439 0 0 1 0.94404,0.9001 z m 48.86687,0 -0.83789,5.8252 a 0.80484132,0.80484132 0 0 1 -0.61713,0.66765 18.842588,18.842588 0 0 1 -4.49911,0.59135 c -3.59895,0 -5.86132,-1.18264 -6.78657,-3.18763 -2.15948,1.90209 -5.39869,3.18763 -8.94632,3.18763 -6.68367,0 -10.38551,-4.47316 -9.40867,-11.05421 l 2.16112,-14.63751 a 0.80105778,0.80105778 0 0 1 0.79247,-0.68406 h 7.7378 a 0.80105778,0.80105778 0 0 1 0.79246,0.91812 l -1.86937,12.65529 c -0.4629,2.9821 0.82263,4.83316 3.59894,4.83316 2.8279,0 4.83288,-1.74816 5.24421,-4.67895 l 1.95434,-13.04525 a 0.80105778,0.80105778 0 0 1 0.79222,-0.68237 h 7.73959 a 0.80106043,0.80106043 0 0 1 0.79247,0.9181 l -2.33231,15.79163 c -0.20579,1.23394 0.30842,1.79947 1.59368,1.79947 a 6.0999131,6.0999131 0 0 0 1.15405,-0.11772 0.80267439,0.80267439 0 0 1 0.94402,0.9001 z" id="path391"/>
      <path id="path393" d="m 298.64577,383.6162 c -3.89152,-9.73284 -16.24311,-12.49632 -18.66552,-12.95034 a 0.43557295,0.43557295 0 0 1 -0.3511,-0.49294 l 3.50443,-23.25617 a 42.314812,42.314812 0 0 0 -5.89336,-0.19529 0.43444583,0.43444583 0 0 0 -0.40506,0.3702 l -4.25615,28.24509 a 0.43418124,0.43418124 0 0 0 0.43961,0.50009 c 3.08202,-0.0751 19.03992,-0.0795 23.67975,7.65897 a 0.87442409,0.87442409 0 0 0 0.9933,0.39754 z" class="b" style="fill:url(#a);stroke-width:0.26458332"/>
      <path id="path395" d="m 300.35006,382.59381 c -0.96652,-6.21245 -8.26884,-12.80964 -8.26884,-12.80964 -2.18055,-2.65369 -0.35408,-6.33934 0.53753,-7.80884 a 0.43375527,0.43375527 0 0 0 -0.33846,-0.65785 c -1.38832,-0.10725 -4.1951,-0.72067 -4.19408,-3.92796 a 5.5321437,5.5321437 0 0 1 0.0701,-0.81932 l 1.31626,-8.76128 v -2e-5 l -0.002,-3.2e-4 c -1.36149,-0.25886 -2.72032,-0.47069 -4.03055,-0.63772 l -0.0158,-0.002 c -0.78424,-0.0998 -1.55039,-0.18364 -2.28895,-0.25188 l -0.002,-1.9e-4 -3.50443,23.25618 a 0.43557295,0.43557295 0 0 0 0.3511,0.49293 c 2.42241,0.45402 14.774,3.21751 18.66552,12.95034 l 1.08755,-0.31589 a 0.87074374,0.87074374 0 0 0 0.61812,-0.70642 l 0.14619,-0.97011 c -0.0959,0.63088 -0.14758,0.97003 -0.14758,0.97003 z" class="c" style="fill:url(#b);stroke-width:0.26458332"/>
      <path id="path397" d="m 285.42448,347.16882 0.0158,0.002 c 1.31023,0.16704 2.66906,0.37887 4.03055,0.63774 l 0.002,3.1e-4 0.8257,-5.49594 a 28.94126,28.94126 0 0 0 -5.96777,-0.82421 0.4334457,0.4334457 0 0 0 -0.43489,0.37072 l -0.76208,5.05731 0.002,1.9e-4 c 0.73857,0.0682 1.50471,0.15208 2.28894,0.25187 z" class="d" style="fill:#22b5f0;stroke-width:0.26458332"/>
      <path id="path399" d="m 304.18336,357.16444 c 0.76933,-4.91407 -7.00148,-7.88945 -14.71075,-9.35552 l -1.31626,8.76128 a 5.5321437,5.5321437 0 0 0 -0.0701,0.81932 c -0.001,3.20729 2.80576,3.82071 4.19408,3.92796 a 0.43375527,0.43375527 0 0 1 0.33846,0.65785 c -0.89161,1.46949 -2.71808,5.15514 -0.53753,7.80884 0,0 7.30232,6.59719 8.26884,12.80964 0,10e-6 1.86153,-12.22019 4.08628,-27.10824 z" class="e" style="fill:url(#c);stroke-width:0.26458332"/>
      <path id="path401" d="m 304.43663,355.48364 c 1.99429,-13.34595 -10.36909,-17.19097 -12.95306,-17.8446 a 0.43471041,0.43471041 0 0 0 -0.53679,0.35761 l -0.64847,4.31629 c 7.18678,1.71665 15.19604,6.10441 14.13832,13.1707 z" class="f" style="fill:url(#d);stroke-width:0.26458332"/>
      <path id="path403" d="m 290.29831,342.31294 -0.82569,5.49596 v 0 2e-5 c 7.70926,1.46607 15.48007,4.44146 14.71073,9.35553 l 0.25328,-1.68081 c 1.05772,-7.06629 -6.95154,-11.45405 -14.13832,-13.1707 z" class="g" style="fill:url(#e);stroke-width:0.26458332"/>
    </g>
  </g>
</svg>